<svg xmlns="http://www.w3.org/2000/svg" width="65.2" height="65.2" viewBox="0 0 65.2 65.2"><linearGradient id="a" gradientUnits="userSpaceOnUse" x1="32.852" y1="18.1" x2="32.346" y2="47.096"><stop offset=".545" stop-color="#ffe300"/><stop offset=".733" stop-color="#fee102"/><stop offset=".83" stop-color="#fad908"/><stop offset=".905" stop-color="#f4cc13"/><stop offset=".97" stop-color="#ebb922"/><stop offset="1" stop-color="#e5ad2b"/></linearGradient><circle fill="url(#a)" cx="32.6" cy="32.6" r="14.5"/><radialGradient id="b" cx="43.159" cy="39.596" r="11.853" fx="39.752" fy="39.67" gradientTransform="matrix(1.0433 0 0 1.1003 -12.564 -14.744)" gradientUnits="userSpaceOnUse"><stop offset=".206" stop-color="#FFF"/><stop offset=".661" stop-color="#f8f2aa"/><stop offset=".727" stop-color="#faf083"/><stop offset=".813" stop-color="#fcee57"/><stop offset=".891" stop-color="#fdec37"/><stop offset=".956" stop-color="#feeb23"/><stop offset="1" stop-color="#feeb1c"/></radialGradient><path fill="url(#b)" d="M46.1 29.6c0 6.4-6.1 11.5-13.6 11.5s-13.6-5.2-13.6-11.5c0-6.4 6.1-11.5 13.6-11.5s13.6 5.2 13.6 11.5z"/><linearGradient id="c" gradientUnits="userSpaceOnUse" x1="105.815" y1="-69.948" x2="111.357" y2="-79.548" gradientTransform="rotate(-22.5 292.334 177.776)"><stop offset=".267" stop-color="#ffe300"/><stop offset=".422" stop-color="#fdde03"/><stop offset=".614" stop-color="#f6cf0d"/><stop offset=".823" stop-color="#eab61c"/><stop offset="1" stop-color="#de9b2d"/></linearGradient><path fill="url(#c)" d="M29.5 18.2l-4.9 2-1.9-11.4z"/><linearGradient id="d" gradientUnits="userSpaceOnUse" x1="325.354" y1="-131.548" x2="330.896" y2="-141.146" gradientTransform="rotate(-67.5 292.238 178.28)"><stop offset=".267" stop-color="#ffe300"/><stop offset=".422" stop-color="#fdde03"/><stop offset=".614" stop-color="#f6cf0d"/><stop offset=".823" stop-color="#eab61c"/><stop offset="1" stop-color="#de9b2d"/></linearGradient><path fill="url(#d)" d="M20.2 24.6l-2 4.9-9.4-6.8z"/><linearGradient id="e" gradientUnits="userSpaceOnUse" x1="523.853" y1="-19.735" x2="529.394" y2="-29.333" gradientTransform="rotate(-112.5 292.022 178.36)"><stop offset=".267" stop-color="#ffe300"/><stop offset=".422" stop-color="#fdde03"/><stop offset=".614" stop-color="#f6cf0d"/><stop offset=".823" stop-color="#eab61c"/><stop offset="1" stop-color="#de9b2d"/></linearGradient><path fill="url(#e)" d="M18.2 35.7l2 4.9-11.4 1.9z"/><linearGradient id="f" gradientUnits="userSpaceOnUse" x1="585.451" y1="199.554" x2="590.993" y2="189.955" gradientTransform="rotate(-157.5 292.063 178.372)"><stop offset=".267" stop-color="#ffe300"/><stop offset=".422" stop-color="#fdde03"/><stop offset=".614" stop-color="#f6cf0d"/><stop offset=".823" stop-color="#eab61c"/><stop offset="1" stop-color="#de9b2d"/></linearGradient><path fill="url(#f)" d="M24.6 45l4.9 2-6.8 9.4z"/><linearGradient id="g" gradientUnits="userSpaceOnUse" x1="473.636" y1="398.308" x2="479.178" y2="388.708" gradientTransform="rotate(157.5 291.958 178.478)"><stop offset=".267" stop-color="#ffe300"/><stop offset=".422" stop-color="#fdde03"/><stop offset=".614" stop-color="#f6cf0d"/><stop offset=".823" stop-color="#eab61c"/><stop offset="1" stop-color="#de9b2d"/></linearGradient><path fill="url(#g)" d="M35.7 47l4.9-2 1.9 11.4z"/><linearGradient id="h" gradientUnits="userSpaceOnUse" x1="254.344" y1="459.65" x2="259.885" y2="450.051" gradientTransform="rotate(112.5 291.944 178.435)"><stop offset=".267" stop-color="#ffe300"/><stop offset=".422" stop-color="#fdde03"/><stop offset=".614" stop-color="#f6cf0d"/><stop offset=".823" stop-color="#eab61c"/><stop offset="1" stop-color="#de9b2d"/></linearGradient><path fill="url(#h)" d="M45 40.6l2-4.9 9.4 6.8z"/><linearGradient id="i" gradientUnits="userSpaceOnUse" x1="55.595" y1="348.089" x2="61.137" y2="338.49" gradientTransform="rotate(67.5 291.864 178.653)"><stop offset=".267" stop-color="#ffe300"/><stop offset=".422" stop-color="#fdde03"/><stop offset=".614" stop-color="#f6cf0d"/><stop offset=".823" stop-color="#eab61c"/><stop offset="1" stop-color="#de9b2d"/></linearGradient><path fill="url(#i)" d="M47 29.5l-2-4.9 11.4-1.9z"/><linearGradient id="j" gradientUnits="userSpaceOnUse" x1="-5.753" y1="128.546" x2="-.21" y2="118.946" gradientTransform="rotate(22.5 291.35 178.756)"><stop offset=".267" stop-color="#ffe300"/><stop offset=".422" stop-color="#fdde03"/><stop offset=".614" stop-color="#f6cf0d"/><stop offset=".823" stop-color="#eab61c"/><stop offset="1" stop-color="#de9b2d"/></linearGradient><path fill="url(#j)" d="M40.6 20.2l-4.9-2 6.8-9.4z"/><circle fill="none" stroke="#D68122" stroke-width="1.235" cx="32.6" cy="32.6" r="14.5"/><path fill="#D4831D" d="M36.5 18.2h-7.8l3.9-6.7zm-11.3 1.5l-5.5 5.5-2.1-7.6zm-7 9v7.8l-6.7-3.9zM19.7 40l5.5 5.5-7.6 2.1zm9 7h7.8l-3.9 6.7zM40 45.5l5.5-5.5 2.1 7.6zm7-9v-7.8l6.7 3.9zm-1.5-11.3L40 19.7l7.6-2.1z"/></svg>