<svg xmlns="http://www.w3.org/2000/svg" width="65.2" height="65.2" viewBox="0 0 65.2 65.2"><linearGradient id="a" gradientUnits="userSpaceOnUse" x1="43.205" y1="29.778" x2="52.777" y2="51.278"><stop offset=".285" stop-color="#FFF"/><stop offset=".381" stop-color="#e8f2fa"/><stop offset=".583" stop-color="#add2ec"/><stop offset=".87" stop-color="#509ed7"/><stop offset="1" stop-color="#2486cd"/></linearGradient><path fill="url(#a)" d="M58 48.9c-.3.4-20.4.6-20.8.1-3.3-5-2.4-12 2.5-16.7 5.4-5.2 13.6-5.4 18.4-.5 4.4 4.6 4.2 11.9-.1 17.1z"/><linearGradient id="b" gradientUnits="userSpaceOnUse" x1="33.95" y1="24.375" x2="57.636" y2="34.921"><stop offset="0" stop-color="#FFF"/><stop offset=".173" stop-color="#fcfdfe"/><stop offset=".32" stop-color="#f1f7fc"/><stop offset=".458" stop-color="#e0ecf7"/><stop offset=".59" stop-color="#c7def1"/><stop offset=".717" stop-color="#a7cbea"/><stop offset=".842" stop-color="#80b4e0"/><stop offset=".962" stop-color="#5299d5"/><stop offset="1" stop-color="#428fd1"/></linearGradient><path fill="url(#b)" d="M54.7 38.9c-5.4 5.2-13.7 5.3-18.7.2-4.9-5.1-4.6-13.5.8-18.7 5.4-5.2 13.8-5.3 18.7-.2 5 5.1 4.6 13.5-.8 18.7z"/><linearGradient id="c" gradientUnits="userSpaceOnUse" x1="27.447" y1="26.057" x2="46.154" y2="42.319"><stop offset="0" stop-color="#FFF"/><stop offset=".111" stop-color="#f7fafd"/><stop offset=".284" stop-color="#e1edf8"/><stop offset=".497" stop-color="#bdd8ef"/><stop offset=".742" stop-color="#8cbae2"/><stop offset="1" stop-color="#4f96d3"/></linearGradient><path fill="url(#c)" d="M45.4 43.1c-5.4 5.2-13.6 5.4-18.4.5-4.7-4.9-4.2-13.1 1.2-18.3 5.4-5.2 13.6-5.4 18.4-.5 4.7 4.9 4.2 13.1-1.2 18.3z"/><linearGradient id="d" gradientUnits="userSpaceOnUse" x1="22.439" y1="29.471" x2="26.145" y2="50.486"><stop offset=".109" stop-color="#FFF"/><stop offset=".664" stop-color="#95c0e4"/><stop offset="1" stop-color="#599dd5"/></linearGradient><path fill="url(#d)" d="M36.6 48.6c-.5.6-25.8.6-26 .2-.4-.9 2.6-3.1 3.1-3.9 5.6-8.4 7.7-17.2 16-16.3 2.5.3 4.7 1.5 6.5 3.4 4.3 4.4 4.3 11.5.4 16.6z"/><path fill="#004273" d="M61.8 39.6c-.2-2.9-1.3-5.5-3-7.5V32c1.3-9.4-3-14.5-9.6-16.2-4.8-1.2-9.7.5-13 4.1-4.9.3-9.4 3.7-11.4 8.6-2.5.8-4.4 2.4-5.8 4.5 0 0-.5 1-.9 1.7-3.7 6.8-6.6 10.7-8.7 12.8-.5.5-2.6 2.3-2.6 2.3h51.5c2.5-2.6 3.8-6.2 3.5-10.2zm-5 8.4H12.4c4.8-5.8 7.4-11.8 8-13 .9-1.6 2.1-2.9 3.7-3.8 1.1-.7 2-1 2.9-1.1 1.9-.4 3.8-.3 5.6.3 1 .4 1.4.5 2.4 1.1.8.5 1.5 1 2.1 1.7l.1-.1c-.7-.9-1.4-1.7-2.3-2.4-1-.9-1.4-1.1-2.3-1.5-1.5-.7-3.1-1.1-4.8-1.1 1.4-2.9 3.8-5.1 7-6.1 1.1-.3 1.8-.4 3.1-.5 4.6-.1 8.9 2.7 11 7.1l.2-.2c-1.4-3.9-4.6-7-8.8-8.1-.3-.1-.6-.1-.9-.2 1.2-.9 2.5-1.7 4-2.1 6.2-1.8 12.7 2.1 14.5 8.8.4 1.4.5 3.2.4 4.6l-.3 1.4c1.1 1.8 1.9 3 2.1 5.2.2 3.9-1.1 7.5-3.3 10z"/><path fill="#1F73A1" d="M12.9 48h-.5L11 49.8h.6l1.3-1.8zm-1.2 1.8h46.8c2.4-2.6 3.8-6.2 3.4-10.2-.2-2.9-1.3-5.5-3-7.5V32l-.9.9c1.1 1.8 1.9 3 2.1 5.2.3 3.8-1 7.4-3.2 9.9h-44"/><path fill="#1F73A1" d="M11.7 49.8h46.8c2.4-2.6 3.8-6.2 3.4-10.2-.2-2.9-1.3-5.5-3-7.5V32l-.9.9c1.1 1.8 1.9 3 2.1 5.2.3 3.8-1 7.4-3.2 9.9h-44"/><path fill="#085C96" d="M12.9 48h-.5L11 49.8h.7zm46-15.8l-.1-.2-.9.9.4.5z"/><path fill="#1F73A1" d="M47.6 26.6c.5.6.9 1.3 1.2 2l.2-.2c-.3-.8-.7-1.6-1.1-2.4m-12.2 6c.5.4 1 .8 1.4 1.2l.1-.1c-.5-.6-1-1.2-1.5-1.7"/><path fill="#000040" d="M43.3 36.7s.1-.2-.1-.3c-.2-.1-.3.1-.3.1s-3.2 5.8-10 10.6c-6.4 4.5-5.1 10.4-3.8 11.8 1.4 1.5 4.2 3.3 8.1 1.2 4.1-2.3 4.2-8.1 4.2-10.1 0-1.9-.6-6.9 1.9-13.3z"/><linearGradient id="e" gradientUnits="userSpaceOnUse" x1="33.573" y1="55.521" x2="38.388" y2="46.187"><stop offset=".039" stop-color="#FFF"/><stop offset=".121" stop-color="#f7fafd"/><stop offset=".247" stop-color="#e1edf7"/><stop offset=".403" stop-color="#bdd8ee"/><stop offset=".581" stop-color="#8cbbe2"/><stop offset=".741" stop-color="#599dd5"/></linearGradient><path fill="url(#e)" d="M40.4 42c.2-.5-2 3.9-7.2 7.2-4.5 2.9-3.5 7-2.6 8 .9 1 2.8 2.3 5.5.8 2.8-1.5 2.7-5.6 2.9-6.9.3-2.3.8-7.5 1.4-9.1z"/><path fill="#000040" d="M28.7 36.7s.1-.2-.1-.3c-.2-.1-.3.1-.3.1s-3.2 5.8-10 10.6c-6.4 4.5-5.1 10.4-3.8 11.8 1.4 1.5 4.2 3.3 8.1 1.2 4.1-2.3 4.2-8.1 4.2-10.1 0-1.9-.6-6.9 1.9-13.3z"/><linearGradient id="f" gradientUnits="userSpaceOnUse" x1="18.963" y1="55.521" x2="23.779" y2="46.187"><stop offset=".039" stop-color="#FFF"/><stop offset=".121" stop-color="#f7fafd"/><stop offset=".247" stop-color="#e1edf7"/><stop offset=".403" stop-color="#bdd8ee"/><stop offset=".581" stop-color="#8cbbe2"/><stop offset=".741" stop-color="#599dd5"/></linearGradient><path fill="url(#f)" d="M25.8 42c.2-.5-2 3.9-7.2 7.2-4.5 2.9-3.5 7-2.6 8 .9 1 2.8 2.3 5.5.8 2.8-1.5 2.7-5.6 2.9-6.9.3-2.3.8-7.5 1.4-9.1z"/></svg>