<svg xmlns="http://www.w3.org/2000/svg" width="65.2" height="65.2" viewBox="0 0 65.2 65.2"><circle fill="#0071BC" stroke="#0FF" stroke-width=".875" cx="32.6" cy="32.6" r="18.2"/><linearGradient id="a" gradientUnits="userSpaceOnUse" x1="24.855" y1="21.709" x2="41.158" y2="44.631"><stop offset="0" stop-color="#FFF"/><stop offset=".107" stop-color="#f9f9fc"/><stop offset=".248" stop-color="#e9e9f3"/><stop offset=".408" stop-color="#cdcee5"/><stop offset=".582" stop-color="#a7a8d1"/><stop offset=".768" stop-color="#7678b8"/><stop offset=".96" stop-color="#3b3e99"/><stop offset="1" stop-color="#2e3192"/></linearGradient><circle fill="url(#a)" stroke="#2E3192" stroke-width=".99" cx="32.6" cy="32.6" r="16.2"/><path fill="#B3B0D3" d="M20.7 24.9c0 1.2 0 1.6-1.1 2.2-.2 1.6.1 2.2 1.6 2.1.7-1.2-.5-3.7 1.3-3.8.1-.5.3-1.4.5-1.9.5-.9.7-.4 1.5-.5.4 0 1.4-.8 1.9-.4.4.3.3 1.9.3 2.4.7.2.7 1.2.7 1.9-.2.4-.4.2-.6.2-.1.2 0 .5.1.7 1 .1 2.1 0 3.1 0 0 .7-1.7 1.5-1 2.2.2-.6 1.1-.4 1.7-.4-.1-.8.9-1.5 1.6-1.4-.3-.4-.9-.3-1-1-.1-.5.6-.8.4-1.5-.3-.1-.6-.3-1-.4-.1-1-.8-.7 0-3 .2-.5.5-.1.6 0v-.2c.7 0 1.4-.4 2.2-.4 0-.2.1-.4 0-.6.2 0 .5.1.7.2v.3c.6.3 1.4.3 2 .4 0 .6-.1 1.9.4 2.3.5.4 1.7-.1 2.3.3.1-.5-.3-1.1-.6-1.5h1.2c.3 1.3.8.7 1.8 1.1 0 .6-.3 2 .6 1.8v-1.6c.7-.1 1.6.1 2.3.2 1 .1 1 .6 1.1 1.7.9 0 1 2 1.1 2.7-.5.2-2.2-.1-2.6-.5-.7-.6.1-1.4-1.1-1.6 0-.2-.2-.4-.2-.7-.3.3-.2.7-.5 1-.3.3-.7.4-1.1.6-.5 1.3.4.8 1.2 1.2.7.4.6 1.4 1.7 1.4.2.6.3 1.9.2 2.6-.2 1.3-.8.5-1.2-.2-.3-.5-1-1.6-1.6-1.6-.4 0-1.7.8-2 1-.4-.4-.2-1.7-.2-2.4-1.1-.1-2 .1-2.7-.9-.6-.9 0-1.9-.2-2.9-.4-.1-1.2-.3-1.6-.1-.5.3-.3.7-.7 1.1-.2.3-.9.2-.9.8 0 .7.8.5 1.3.5.2.3.3.7.2 1.1-.6.4-.9-.1-1.4 0-.4.1-.7.5-1 .7-.1.7-1.3.4-1.1 1.4.9 0 2.7 0 1.6 1.2-.8.8-1.9.5-2.6 0 0-.8.1-1.2-.4-1.7-.4-.5-1-.6-1.7-.5-.7.1-1.3.3-1.8.7-.7.6-.5.7-.5 1.6.4.1.5.6.4 1 1 .2.7-.5 1.2-.7.6-.2 1.1.2 1.6.3.1.8-.5.4-.9.7-.4.4-.3.8-.3 1.4 0 .6-.1 1 .4 1.3.4.2 1.1-.5 1 .5.7.2 2.2-.1 2.5.8h.4c.2-.8-1.4-1.7-.6-2.3.4-.3 2.3.4 2.7.5.2 1.2 1.2 2.2.9 3.4-.2 1.1-.9 1.4-2.1 1-.3-1-1.1-.4-1.9-.6-.8-.2-.9-.8-1.8-.1 0 .2-.1.4 0 .6-.3.3-.6.7-.5 1.1.8-.2 1.2.7.9 1.4-.3.7-1.1.5-1.9.5-.4-.7-.2-1.4-.7-2.1-.4-.5-.9-1.1-1.2-1.7-.6 0-.5.5-.8.9-.4.7 0 .7-.9 1-1.3.5-1.5.4-2.5-.5-.4-.3-.7-.7-1-1-.3-.3-1-.5-1.2-.8-.3-.4 0-3.3-1.4-1.9-.7-1-.2-3.2-.3-4.4h-.4c-.6-.6-.1-1.7.1-2.4.1 0 .3-.1.5 0 .1-.2.1-.2.2-.3.1-.6-.4-3.5.9-3.2.2-.3.3-.6.3-.9.2 0 .5-.1.7 0 0-.2.1-.5 0-.7.2 0 .3-.1.4-.1"/><path fill="#C4C4E2" d="M43 23.2c-1.2.1-1.9-.3-2.1-1.4-.6.1-1-.3-1.1-.8.5-.5 2-.6 2.5-.3 0 .2-.1.7 0 .8 0 .1.5.5.5.5.3.3.3 1.1.2 1.2"/><path fill="#E8E8FB" d="M20.9 24c.3-.6.1-1.2.5-1.9.2 0 .6-.1.8 0 .3-.4.2-.8.6-1 .1-.1 1.6 0 1.8 0 .2-1.1.9-1.4 1.7-2 .5-.3.4-.4 1.1-.6.5-.1 1.1.2 1.3-.5.8-.3 2.3-.5 3.2-.3.6.1.4.7 0 .9-3.1.5-3-.4-4.1.1-.4.2.1.8-.3 1-.5.2-.7 1.1-1.3.8-.7 0-.7.7-1.2 1-.6.4-1.1 0-1.7-.3 0 .2-.1 1-.1 1.2-1.7-.1-1.3.9-1.4 2.3-.3.1-1.1.7-1.1-.2"/></svg>