<svg xmlns="http://www.w3.org/2000/svg" width="65.2" height="65.2" viewBox="0 0 65.2 65.2"><linearGradient id="a" gradientUnits="userSpaceOnUse" x1="43.205" y1="29.54" x2="52.777" y2="51.04"><stop offset=".503" stop-color="#FFF"/><stop offset=".623" stop-color="#e8f2f9"/><stop offset=".872" stop-color="#aecfeb"/><stop offset="1" stop-color="#8ebce3"/></linearGradient><path fill="url(#a)" d="M58 48.7c-.3.4-20.4.6-20.8.1-3.3-5-2.4-12 2.5-16.7 5.4-5.2 13.6-5.4 18.4-.5 4.4 4.5 4.2 11.9-.1 17.1z"/><linearGradient id="b" gradientUnits="userSpaceOnUse" x1="33.95" y1="24.375" x2="57.636" y2="34.921"><stop offset=".218" stop-color="#FFF"/><stop offset=".391" stop-color="#fcfdfe"/><stop offset=".535" stop-color="#f1f7fc"/><stop offset=".667" stop-color="#e0edf7"/><stop offset=".794" stop-color="#c8def1"/><stop offset=".914" stop-color="#a9ccea"/><stop offset="1" stop-color="#8ebce3"/></linearGradient><path fill="url(#b)" d="M54.7 38.9c-5.4 5.2-13.7 5.3-18.7.2-4.9-5.1-4.6-13.5.8-18.7 5.4-5.2 13.8-5.3 18.7-.2 5 5.1 4.6 13.5-.8 18.7z"/><linearGradient id="c" gradientUnits="userSpaceOnUse" x1="27.447" y1="26.057" x2="46.154" y2="42.319"><stop offset=".158" stop-color="#FFF"/><stop offset=".335" stop-color="#fcfdfe"/><stop offset=".491" stop-color="#f1f7fb"/><stop offset=".638" stop-color="#dfecf7"/><stop offset=".78" stop-color="#c6ddf1"/><stop offset=".917" stop-color="#a5cae9"/><stop offset="1" stop-color="#8ebce3"/></linearGradient><path fill="url(#c)" d="M45.4 43.1c-5.4 5.2-13.6 5.4-18.4.5-4.7-4.9-4.2-13.1 1.2-18.3 5.4-5.2 13.6-5.4 18.4-.5 4.7 4.9 4.2 13.1-1.2 18.3z"/><linearGradient id="d" gradientUnits="userSpaceOnUse" x1="23.396" y1="29.025" x2="25.583" y2="49.836"><stop offset=".267" stop-color="#FFF"/><stop offset=".413" stop-color="#fbfdfe"/><stop offset=".55" stop-color="#f0f6fb"/><stop offset=".682" stop-color="#ddebf7"/><stop offset=".813" stop-color="#c3dbf0"/><stop offset=".94" stop-color="#a1c7e8"/><stop offset="1" stop-color="#8ebce3"/></linearGradient><path fill="url(#d)" d="M36.6 48.6c-.5.6-25.8.6-26 .2-.4-.9 2.6-3.1 3.1-3.9 5.6-8.4 7.7-17.2 16-16.3 2.5.3 4.7 1.5 6.5 3.4 4.3 4.4 4.3 11.5.4 16.6z"/><path fill="#005E97" d="M61.8 39.6c-.2-2.9-1.3-5.5-3-7.5V32c1.3-9.4-3-14.5-9.6-16.2-4.8-1.2-9.7.5-13 4.1-4.9.3-9.4 3.7-11.4 8.6-2.5.8-4.4 2.4-5.8 4.5 0 0-.5 1-.9 1.7-3.7 6.8-6.6 10.7-8.7 12.8-.5.5-2.6 2.3-2.6 2.3h51.5c2.5-2.6 3.8-6.2 3.5-10.2zm-5 8.4H12.4c4.8-5.8 7.4-11.8 8-13 .9-1.6 2.1-2.9 3.7-3.8 1.1-.7 2-1 2.9-1.1 1.9-.4 3.8-.3 5.6.3 1 .4 1.4.5 2.4 1.1.8.5 1.5 1 2.1 1.7l.1-.1c-.7-.9-1.4-1.7-2.3-2.4-1-.9-1.4-1.1-2.3-1.5-1.5-.7-3.1-1.1-4.8-1.1 1.4-2.9 3.8-5.1 7-6.1 1.1-.3 1.8-.4 3.1-.5 4.6-.1 8.9 2.7 11 7.1l.2-.2c-1.4-3.9-4.6-7-8.8-8.1-.3-.1-.6-.1-.9-.2 1.2-.9 2.5-1.7 4-2.1 6.2-1.8 12.7 2.1 14.5 8.8.4 1.4.5 3.2.4 4.6l-.3 1.4c1.1 1.8 1.9 3 2.1 5.2.2 3.9-1.1 7.5-3.3 10z"/></svg>