<svg xmlns="http://www.w3.org/2000/svg" width="65.2" height="65.2" viewBox="0 0 65.2 65.2"><linearGradient id="a" gradientUnits="userSpaceOnUse" x1="25.209" y1="11.52" x2="24.749" y2="37.882"><stop offset=".545" stop-color="#ffe300"/><stop offset=".733" stop-color="#fee102"/><stop offset=".83" stop-color="#fad908"/><stop offset=".905" stop-color="#f4cc13"/><stop offset=".97" stop-color="#ebb922"/><stop offset="1" stop-color="#e5ad2b"/></linearGradient><circle fill="url(#a)" cx="25" cy="24.7" r="13.2"/><radialGradient id="b" cx="35.866" cy="32.731" r="10.776" fx="32.769" fy="32.798" gradientTransform="matrix(1.0433 0 0 1.1003 -12.564 -14.744)" gradientUnits="userSpaceOnUse"><stop offset=".206" stop-color="#FFF"/><stop offset=".661" stop-color="#f8f2aa"/><stop offset=".727" stop-color="#faf083"/><stop offset=".813" stop-color="#fcee57"/><stop offset=".891" stop-color="#fdec37"/><stop offset=".956" stop-color="#feeb23"/><stop offset="1" stop-color="#feeb1c"/></radialGradient><ellipse fill="url(#b)" cx="24.9" cy="22" rx="12.4" ry="10.5"/><linearGradient id="c" gradientUnits="userSpaceOnUse" x1="101.99" y1="-78.871" x2="107.028" y2="-87.596" gradientTransform="rotate(-22.5 292.334 177.776)"><stop offset=".267" stop-color="#ffe300"/><stop offset=".422" stop-color="#fdde03"/><stop offset=".614" stop-color="#f6cf0d"/><stop offset=".823" stop-color="#eab61c"/><stop offset="1" stop-color="#de9b2d"/></linearGradient><path fill="url(#c)" d="M22.1 11.6l-4.4 1.8L16 3z"/><linearGradient id="d" gradientUnits="userSpaceOnUse" x1="329.927" y1="-140.318" x2="334.965" y2="-149.044" gradientTransform="rotate(-67.5 292.238 178.28)"><stop offset=".267" stop-color="#ffe300"/><stop offset=".422" stop-color="#fdde03"/><stop offset=".614" stop-color="#f6cf0d"/><stop offset=".823" stop-color="#eab61c"/><stop offset="1" stop-color="#de9b2d"/></linearGradient><path fill="url(#d)" d="M13.7 17.4l-1.8 4.5-8.6-6.2z"/><linearGradient id="e" gradientUnits="userSpaceOnUse" x1="534.257" y1="-22.461" x2="539.296" y2="-31.187" gradientTransform="rotate(-112.5 292.022 178.36)"><stop offset=".267" stop-color="#ffe300"/><stop offset=".422" stop-color="#fdde03"/><stop offset=".614" stop-color="#f6cf0d"/><stop offset=".823" stop-color="#eab61c"/><stop offset="1" stop-color="#de9b2d"/></linearGradient><path fill="url(#e)" d="M11.9 27.5l1.8 4.5-10.4 1.7z"/><linearGradient id="f" gradientUnits="userSpaceOnUse" x1="595.703" y1="205.225" x2="600.742" y2="196.498" gradientTransform="rotate(-157.5 292.063 178.372)"><stop offset=".267" stop-color="#ffe300"/><stop offset=".422" stop-color="#fdde03"/><stop offset=".614" stop-color="#f6cf0d"/><stop offset=".823" stop-color="#eab61c"/><stop offset="1" stop-color="#de9b2d"/></linearGradient><path fill="url(#f)" d="M17.7 36l4.4 1.8-6.1 8.6z"/><linearGradient id="g" gradientUnits="userSpaceOnUse" x1="477.845" y1="409.81" x2="482.884" y2="401.082" gradientTransform="rotate(157.5 291.958 178.478)"><stop offset=".267" stop-color="#ffe300"/><stop offset=".422" stop-color="#fdde03"/><stop offset=".614" stop-color="#f6cf0d"/><stop offset=".823" stop-color="#eab61c"/><stop offset="1" stop-color="#de9b2d"/></linearGradient><path fill="url(#g)" d="M27.8 37.8l4.4-1.8 1.7 10.4z"/><linearGradient id="h" gradientUnits="userSpaceOnUse" x1="250.156" y1="471.002" x2="255.194" y2="462.276" gradientTransform="rotate(112.5 291.944 178.435)"><stop offset=".267" stop-color="#ffe300"/><stop offset=".422" stop-color="#fdde03"/><stop offset=".614" stop-color="#f6cf0d"/><stop offset=".823" stop-color="#eab61c"/><stop offset="1" stop-color="#de9b2d"/></linearGradient><path fill="url(#h)" d="M36.2 32l1.9-4.5 8.5 6.2z"/><linearGradient id="i" gradientUnits="userSpaceOnUse" x1="45.575" y1="353.397" x2="50.614" y2="344.669" gradientTransform="rotate(67.5 291.864 178.653)"><stop offset=".267" stop-color="#ffe300"/><stop offset=".422" stop-color="#fdde03"/><stop offset=".614" stop-color="#f6cf0d"/><stop offset=".823" stop-color="#eab61c"/><stop offset="1" stop-color="#de9b2d"/></linearGradient><path fill="url(#i)" d="M38.1 21.9l-1.9-4.5 10.4-1.7z"/><linearGradient id="j" gradientUnits="userSpaceOnUse" x1="-15.623" y1="125.457" x2="-10.585" y2="116.73" gradientTransform="rotate(22.5 291.35 178.756)"><stop offset=".267" stop-color="#ffe300"/><stop offset=".422" stop-color="#fdde03"/><stop offset=".614" stop-color="#f6cf0d"/><stop offset=".823" stop-color="#eab61c"/><stop offset="1" stop-color="#de9b2d"/></linearGradient><path fill="url(#j)" d="M32.2 13.4l-4.4-1.8L33.9 3z"/><circle fill="none" stroke="#D68122" stroke-width="1.123" cx="25" cy="24.7" r="13.2"/><path fill="#D4831D" d="M28.5 11.6h-7L25 5.5zM18.2 13l-5 4.9-1.8-6.8zm-6.3 8.2v7l-6.1-3.5zm1.3 10.3l5 4.9-6.8 1.9zm8.3 6.3h7L25 43.9zm10.2-1.4l5-4.9 1.9 6.8zm6.4-8.2v-7l6.1 3.5zm-1.4-10.3l-5-4.9 6.9-1.9z"/><linearGradient id="k" gradientUnits="userSpaceOnUse" x1="43.205" y1="29.54" x2="52.777" y2="51.04"><stop offset=".503" stop-color="#FFF"/><stop offset=".623" stop-color="#e8f2f9"/><stop offset=".872" stop-color="#aecfeb"/><stop offset="1" stop-color="#8ebce3"/></linearGradient><path fill="url(#k)" d="M58 48.7c-.3.4-20.4.6-20.8.1-3.3-5-2.4-12 2.5-16.7 5.4-5.2 13.6-5.4 18.4-.5 4.4 4.5 4.2 11.9-.1 17.1z"/><linearGradient id="l" gradientUnits="userSpaceOnUse" x1="33.95" y1="24.375" x2="57.636" y2="34.921"><stop offset=".218" stop-color="#FFF"/><stop offset=".391" stop-color="#fcfdfe"/><stop offset=".535" stop-color="#f1f7fc"/><stop offset=".667" stop-color="#e0edf7"/><stop offset=".794" stop-color="#c8def1"/><stop offset=".914" stop-color="#a9ccea"/><stop offset="1" stop-color="#8ebce3"/></linearGradient><path fill="url(#l)" d="M54.7 38.9c-5.4 5.2-13.7 5.3-18.7.2-4.9-5.1-4.6-13.5.8-18.7 5.4-5.2 13.8-5.3 18.7-.2 5 5.1 4.6 13.5-.8 18.7z"/><linearGradient id="m" gradientUnits="userSpaceOnUse" x1="27.447" y1="26.057" x2="46.154" y2="42.319"><stop offset=".158" stop-color="#FFF"/><stop offset=".335" stop-color="#fcfdfe"/><stop offset=".491" stop-color="#f1f7fb"/><stop offset=".638" stop-color="#dfecf7"/><stop offset=".78" stop-color="#c6ddf1"/><stop offset=".917" stop-color="#a5cae9"/><stop offset="1" stop-color="#8ebce3"/></linearGradient><path fill="url(#m)" d="M45.4 43.1c-5.4 5.2-13.6 5.4-18.4.5-4.7-4.9-4.2-13.1 1.2-18.3 5.4-5.2 13.6-5.4 18.4-.5 4.7 4.9 4.2 13.1-1.2 18.3z"/><linearGradient id="n" gradientUnits="userSpaceOnUse" x1="23.396" y1="29.025" x2="25.583" y2="49.836"><stop offset=".267" stop-color="#FFF"/><stop offset=".413" stop-color="#fbfdfe"/><stop offset=".55" stop-color="#f0f6fb"/><stop offset=".682" stop-color="#ddebf7"/><stop offset=".813" stop-color="#c3dbf0"/><stop offset=".94" stop-color="#a1c7e8"/><stop offset="1" stop-color="#8ebce3"/></linearGradient><path fill="url(#n)" d="M36.6 48.6c-.5.6-25.8.6-26 .2-.4-.9 2.6-3.1 3.1-3.9 5.6-8.4 7.7-17.2 16-16.3 2.5.3 4.7 1.5 6.5 3.4 4.3 4.4 4.3 11.5.4 16.6z"/><path fill="#005E97" d="M61.8 39.6c-.2-2.9-1.3-5.5-3-7.5V32c1.3-9.4-3-14.5-9.6-16.2-4.8-1.2-9.7.5-13 4.1-4.9.3-9.4 3.7-11.4 8.6-2.5.8-4.4 2.4-5.8 4.5 0 0-.5 1-.9 1.7-3.7 6.8-6.6 10.7-8.7 12.8-.5.5-2.6 2.3-2.6 2.3h51.5c2.5-2.6 3.8-6.2 3.5-10.2zm-5 8.4H12.4c4.8-5.8 7.4-11.8 8-13 .9-1.6 2.1-2.9 3.7-3.8 1.1-.7 2-1 2.9-1.1 1.9-.4 3.8-.3 5.6.3 1 .4 1.4.5 2.4 1.1.8.5 1.5 1 2.1 1.7l.1-.1c-.7-.9-1.4-1.7-2.3-2.4-1-.9-1.4-1.1-2.3-1.5-1.5-.7-3.1-1.1-4.8-1.1 1.4-2.9 3.8-5.1 7-6.1 1.1-.3 1.8-.4 3.1-.5 4.6-.1 8.9 2.7 11 7.1l.2-.2c-1.4-3.9-4.6-7-8.8-8.1-.3-.1-.6-.1-.9-.2 1.2-.9 2.5-1.7 4-2.1 6.2-1.8 12.7 2.1 14.5 8.8.4 1.4.5 3.2.4 4.6l-.3 1.4c1.1 1.8 1.9 3 2.1 5.2.2 3.9-1.1 7.5-3.3 10z"/></svg>