<svg xmlns="http://www.w3.org/2000/svg" width="80" height="80" viewBox="0 0 80 80"><path fill="#fff" d="M48.73 37.89c4.59-2.9 7.65-8.01 7.65-13.85 0-9.05-7.33-16.38-16.38-16.38s-16.38 7.33-16.38 16.38c0 5.83 3.06 10.94 7.65 13.85-12.7 4.4-21.98 18.16-21.98 34.45H70.7c.01-16.3-9.27-30.05-21.97-34.45z"/><path fill="#ccc" d="M72.37 74H7.63v-1.66c0-15.35 8.22-29.24 20.31-34.89-3.79-3.39-5.99-8.22-5.99-13.41C21.96 14.09 30.05 6 40 6s18.04 8.09 18.04 18.04c0 5.19-2.19 10.02-5.99 13.41 12.09 5.66 20.31 19.54 20.31 34.89V74zm-61.38-3.32h58.03c-.6-14.43-9-27.13-20.83-31.23l-3.26-1.13 2.91-1.84c4.31-2.72 6.88-7.37 6.88-12.44 0-8.12-6.6-14.72-14.72-14.72s-14.72 6.6-14.72 14.72c0 5.07 2.57 9.72 6.88 12.44l2.91 1.84-3.26 1.13c-11.83 4.1-20.22 16.8-20.82 31.23z"/></svg>